<?xml version="1.0" encoding="utf-8"?><svg xmlns="http://www.w3.org/2000/svg" xmlns:xlink="http://www.w3.org/1999/xlink"><symbol viewBox="0 0 502.643 502.643" id="about" xmlns="http://www.w3.org/2000/svg"><path d="M251.256 237.591c37.166 0 67.042-30.048 67.042-66.977.043-37.037-29.876-66.999-67.042-66.999-36.908 0-66.869 29.962-66.869 66.999 0 36.973 29.962 66.977 66.869 66.977zm53.776 10.915H197.653c-19.198 0-34.923 17.602-34.923 39.194v107.854c0 1.186.604 2.243.669 3.473h175.823c.129-1.229.626-2.286.626-3.473V287.7c.064-21.592-15.661-39.194-34.816-39.194zm126.556 21.053c29.832 0 53.754-24.008 53.754-53.668s-23.922-53.711-53.754-53.711c-29.617 0-53.582 24.051-53.582 53.711-.064 29.639 23.966 53.668 53.582 53.668zm43.12 8.758h-86.046c-15.445 0-28.064 14.107-28.064 31.472v86.413c0 .928.453 1.812.518 2.826h141.03c.065-1.014.496-1.898.496-2.826v-86.413c.065-17.365-12.532-31.472-27.934-31.472zm-403.697-8.758c29.789 0 53.733-24.008 53.733-53.668S100.8 162.18 71.011 162.18c-29.638 0-53.603 24.051-53.603 53.711s23.965 53.668 53.603 53.668zm43.098 8.758H27.977C12.576 278.317 0 292.424 0 309.789v86.413c0 .928.453 1.812.539 2.826h141.03c.065-1.014.475-1.898.475-2.826v-86.413c.043-17.365-12.555-31.472-27.935-31.472z"/></symbol><symbol viewBox="0 0 477.175 477.175" id="arrow" xmlns="http://www.w3.org/2000/svg"><path d="M360.731 229.075l-225.1-225.1c-5.3-5.3-13.8-5.3-19.1 0s-5.3 13.8 0 19.1l215.5 215.5-215.5 215.5c-5.3 5.3-5.3 13.8 0 19.1 2.6 2.6 6.1 4 9.5 4 3.4 0 6.9-1.3 9.5-4l225.1-225.1c5.3-5.2 5.3-13.8.1-19z"/></symbol><symbol viewBox="0 0 490.667 490.667" id="car" xmlns="http://www.w3.org/2000/svg"><path d="M266.667 213.333H224c-5.888 0-10.667 4.779-10.667 10.667s4.779 10.667 10.667 10.667h42.667c5.888 0 10.667-4.779 10.667-10.667s-4.779-10.667-10.667-10.667zM138.837 192c-6.315.213-10.752 4.608-10.837 10.496-.085 5.888 4.608 10.752 10.496 10.837 14.485.235 32.171 5.184 32.171 10.667 0 5.888 4.779 10.667 10.667 10.667S192 229.888 192 224c0-30.293-47.723-31.915-53.163-32z"/><path d="M350.741 154.368c-8.853-26.923-30.443-53.205-44.992-60.501-8.064-4.032-35.627-8.533-60.416-8.533s-52.352 4.501-60.437 8.533c-14.528 7.296-36.117 33.6-44.971 60.523-15.595 16.896-22.592 46.741-22.592 69.611 0 15.936 1.472 43.115 10.667 57.003v17.664c0 11.968 9.365 21.333 21.333 21.333h21.333c11.968 0 21.333-9.365 21.333-21.333v-7.232c12.885 3.221 32.981 7.232 53.333 7.232s40.448-4.011 53.333-7.232v7.232c0 11.968 9.365 21.333 21.333 21.333h21.333c11.968 0 21.333-9.365 21.333-21.333v-17.664c9.195-13.888 10.667-41.067 10.667-57.003.002-22.87-6.995-52.716-22.59-69.633zm-6.293 115.413a10.744 10.744 0 0 0-3.115 7.552v21.333H320v-21.333c0-3.413-1.664-6.635-4.437-8.64a10.503 10.503 0 0 0-6.229-2.027c-1.131 0-2.261.171-3.371.533-.299.107-30.827 10.133-60.629 10.133s-60.331-10.027-60.629-10.112a10.51 10.51 0 0 0-9.6 1.472 10.576 10.576 0 0 0-4.437 8.64v21.333h-21.333v-21.333c0-2.837-1.131-5.547-3.115-7.552-3.136-3.115-7.552-19.392-7.552-45.781 0-19.285 6.208-44.843 18.091-56.341 1.301-1.28 2.283-2.859 2.795-4.608 7.104-23.787 26.645-45.952 34.859-50.069 3.968-1.835 26.731-6.315 50.923-6.315s46.955 4.48 50.88 6.293c8.256 4.139 27.797 26.304 34.901 50.091a10.512 10.512 0 0 0 2.795 4.608C345.792 179.157 352 204.715 352 224c0 26.389-4.416 42.667-7.552 45.781z"/><path d="M351.872 169.109c-.853-5.824-6.293-9.899-12.096-9.003-.704.107-71.829 10.56-94.443 10.56s-93.739-10.453-94.464-10.56c-5.845-.917-11.243 3.179-12.096 9.003s3.179 11.264 9.003 12.117c2.987.427 73.408 10.773 97.557 10.773s94.571-10.347 97.536-10.795c5.846-.852 9.878-6.271 9.003-12.095zM351.829 192c-5.44.085-53.163 1.707-53.163 32 0 5.888 4.779 10.667 10.667 10.667S320 229.888 320 224c0-5.589 17.6-10.411 32.171-10.667 5.888-.107 10.581-4.949 10.475-10.837-.086-5.888-5.185-10.56-10.817-10.496zm-170.496 74.667h-42.667c-5.888 0-10.667 4.779-10.667 10.667S132.779 288 138.667 288h42.667c5.888 0 10.667-4.779 10.667-10.667s-4.78-10.666-10.668-10.666zm170.667 0h-42.667c-5.888 0-10.667 4.779-10.667 10.667S303.445 288 309.333 288H352c5.888 0 10.667-4.779 10.667-10.667s-4.779-10.666-10.667-10.666z"/><path d="M245.333 0C110.059 0 0 110.059 0 245.333s110.059 245.333 245.333 245.333 245.333-110.059 245.333-245.333S380.608 0 245.333 0zm0 469.333c-123.52 0-224-100.48-224-224s100.48-224 224-224 224 100.48 224 224-100.48 224-224 224z"/><path d="M201.536 368.555l-10.667-21.333a10.684 10.684 0 0 0-9.536-5.888H160c-5.888 0-10.667 4.779-10.667 10.667s4.779 10.667 10.667 10.667h14.741l5.333 10.667L174.741 384H160c-5.888 0-10.667 4.779-10.667 10.667s4.779 10.667 10.667 10.667h21.333c4.032 0 7.723-2.283 9.536-5.909l10.667-21.333a10.713 10.713 0 0 0 0-9.537zM330.667 384h-14.741l-5.333-10.667 5.333-10.667h14.741c5.888 0 10.667-4.779 10.667-10.667s-4.779-10.667-10.667-10.667h-21.333a10.665 10.665 0 0 0-9.536 5.909l-10.667 21.333a10.711 10.711 0 0 0 0 9.536l10.667 21.333a10.684 10.684 0 0 0 9.536 5.888h21.333c5.888 0 10.667-4.779 10.667-10.667-.001-5.885-4.779-10.664-10.667-10.664z"/><path d="M298.667 362.667H192c-5.888 0-10.667 4.779-10.667 10.667s4.779 10.667 10.667 10.667h106.667c5.888 0 10.667-4.779 10.667-10.667-.001-5.889-4.779-10.667-10.667-10.667zm-175.872-228.48c-4.053 0-7.552 1.067-10.347 3.157-3.733 2.795-5.781 7.061-5.781 11.989 0 16.661 12.928 28.181 14.4 29.44a10.624 10.624 0 0 0 6.891 2.56c2.987 0 5.952-1.28 8.064-3.691 3.861-4.416 3.371-11.136-1.024-15.019-.875-.789-2.411-2.368-3.797-4.437 3.221 1.515 6.379 3.435 7.936 4.971a10.665 10.665 0 0 0 10.197 7.509c5.888 0 10.667-4.779 10.667-10.667-.001-14.655-26.412-25.812-37.206-25.812zm255.424 3.157c-2.795-2.091-6.293-3.157-10.347-3.157-10.795 0-37.205 11.157-37.205 25.813 0 5.888 4.779 10.667 10.667 10.667 4.8 0 8.853-3.157 10.197-7.509 1.579-1.557 4.736-3.477 7.957-4.992-1.387 2.048-2.88 3.627-3.733 4.395-4.48 3.84-5.013 10.56-1.195 15.04a10.686 10.686 0 0 0 8.107 3.733c2.453 0 4.907-.853 6.933-2.56 1.472-1.259 14.4-12.779 14.4-29.44 0-4.929-2.048-9.195-5.781-11.99z"/></symbol><symbol viewBox="0 0 512 512" id="economy" xmlns="http://www.w3.org/2000/svg"><path d="M309.333 277.333H288c-5.896 0-10.667 4.771-10.667 10.667s4.771 10.667 10.667 10.667h10.667a10.66 10.66 0 0 0 10.667 10.667 10.66 10.66 0 0 0 10.667-10.667v-1.965c12.389-4.418 21.333-16.147 21.333-30.035 0-17.646-14.354-32-32-32-5.885 0-10.667-4.781-10.667-10.667s4.781-10.667 10.667-10.667h21.333a10.66 10.66 0 0 0 10.667-10.667 10.66 10.66 0 0 0-10.667-10.667H320a10.66 10.66 0 0 0-10.667-10.667 10.66 10.66 0 0 0-10.667 10.667v1.965c-12.389 4.418-21.333 16.147-21.333 30.035 0 17.646 14.354 32 32 32 5.885 0 10.667 4.781 10.667 10.667s-4.781 10.667-10.667 10.667z"/><path d="M468.246 375.398c.393-2.017 1.087-3.98 1.087-6.065 0-36.865-27.823-84.51-35.146-96.406-.342-80.199-14.589-138.668-73.19-158.664 2.671-8.352 7.497-19.483 11.982-29.742 8.604-19.688 16.729-38.281 16.729-50.625C389.708 17.021 379.229 0 355.802 0c-15.688 0-21.521 7.406-24.698 13.76-.167-.188-.333-.385-.49-.563C326.25 8.26 318.948 0 301.583 0c-19.531 0-32.208 17.01-38.354 30.948-7.927.396-19.448 2.281-26.958 9.26-4.781 4.448-7.313 10.302-7.313 16.927 0 11.083 7.969 23.885 16.396 37.427 4.191 6.736 8.589 13.952 11.397 20.06-57.803 20.303-71.931 78.543-72.272 158.315-3.508 5.714-11.79 20.014-19.457 37.198-17.01 1.488-31.71 4.819-40.974 7.368-3.212-11.169-12.328-20.174-24.413-22.587L12.76 277.542a10.73 10.73 0 0 0-8.854 2.208A10.685 10.685 0 0 0 0 288v170.667a10.66 10.66 0 0 0 10.667 10.667H77.5c13.165 0 24.384-8.382 29.212-20.147C130.587 460.569 241.055 512 288 512c41.375 0 126.531-41.865 182.875-69.563 14.708-7.229 26.865-13.208 34.75-16.667A10.679 10.679 0 0 0 512 416c0-20.284-17.315-35.443-43.754-40.602zm-364.329-47.596L88.052 438.844C87.313 444.063 82.771 448 77.5 448H21.333V301.01l74.115 14.823c5.552 1.115 9.271 6.365 8.469 11.969zM250.792 55.844c3.167-2.948 13.115-3.906 19.063-3.563 4.958.604 9.5-2.792 10.948-7.521 1.885-6.073 9.729-23.427 20.781-23.427 7.75 0 9.74 2.26 13.042 6 3.344 3.781 8.396 9.49 17.938 9.49 11.875 0 15.729-9.104 17.177-12.531.333-.781.833-1.969 1.052-2.219.01-.01 1.135-.74 5.01-.74 3.438 0 12.573 0 12.573 12.563 0 7.885-8.281 26.844-14.938 42.083-5.275 12.055-10.21 23.53-13.138 33.204-9.443-1.576-19.633-2.517-30.966-2.517-11.622 0-22.074.965-31.711 2.62-3.268-8.268-8.521-16.94-14.154-25.995-5.563-8.937-13.177-21.166-12.677-27.447zm-46.688 225.927a10.702 10.702 0 0 0 1.698-5.771c0-109.271 27.094-148 103.531-148s103.531 38.729 103.531 148c0 2.052.594 4.063 1.698 5.781.333.521 33.438 52.302 33.438 87.552 0 1.372-.27 2.701-.792 4.033-21.09.267-63.467 11.643-85.094 17.857-2.902-30.612-42.124-41.448-82.656-49.681-18.5-3.75-32.26-10.385-45.573-16.802-14.388-6.948-28.284-13.241-45.332-14.767 7.898-16.18 15.454-28.056 15.551-28.202zm257.354 141.521C410.208 448.49 324.417 490.667 288 490.667c-38.802 0-140.688-45.427-176.667-62.927-.043-.021-.09-.013-.133-.034l12.557-87.898c7.759-2.43 31.513-9.141 57.576-9.141 15.75 0 27.906 5.865 43.292 13.281 13.813 6.667 29.479 14.219 50.583 18.51 46.354 9.396 66.125 19.031 66.125 32.208 0 2.604-.792 4.208-2.823 5.719-6.75 5.073-33.24 13.594-132.813-15.948-5.667-1.698-11.583 1.552-13.26 7.198s1.552 11.583 7.198 13.26c49.125 14.563 86.698 21.823 113.323 21.823 17.365 0 30.073-3.083 38.313-9.24.711-.53 1.232-1.181 1.879-1.753.665-.072 1.32.008 1.986-.195C374 409.729 427.438 394.667 448 394.667c17.396 0 35.698 5.292 41.094 15.208-7.448 3.5-16.875 8.135-27.636 13.417z"/></symbol><symbol viewBox="0 0 512.001 512.001" id="ecotime" xmlns="http://www.w3.org/2000/svg"><path d="M321.582 334.292a7.485 7.485 0 0 0-10.448-1.693c-16.121 11.625-35.187 17.771-55.133 17.771-52.035 0-94.37-42.334-94.37-94.37 0-16.885 4.51-33.449 13.043-47.902a7.484 7.484 0 0 0-12.888-7.61c-9.893 16.756-15.122 35.952-15.122 55.512-.002 60.289 49.047 109.338 109.336 109.338 23.109 0 45.201-7.123 63.888-20.598a7.484 7.484 0 0 0 1.694-10.448zM256 146.662c-26.908 0-52.768 9.864-72.817 27.773a7.485 7.485 0 0 0 9.972 11.163 94.21 94.21 0 0 1 62.844-23.969c52.035 0 94.37 42.334 94.37 94.37 0 20.823-6.646 40.564-19.219 57.088a7.485 7.485 0 0 0 11.911 9.064C357.634 303 365.337 280.125 365.337 256c0-60.289-49.048-109.338-109.337-109.338zm208.585 244.704a7.484 7.484 0 0 0-10.416 1.882C409.073 458.234 334.991 497.033 256 497.033a7.484 7.484 0 0 0 0 14.968c83.895 0 162.573-41.204 210.466-110.22a7.483 7.483 0 0 0-1.881-10.415zm18.558-34.106a7.483 7.483 0 0 0-9.995 3.483 240.92 240.92 0 0 1-6.637 12.745 7.484 7.484 0 0 0 13.063 7.307 256.286 256.286 0 0 0 7.051-13.54 7.483 7.483 0 0 0-3.482-9.995zM461.88 103.823c-32.141-43.415-76.173-75.07-127.333-91.547a7.484 7.484 0 0 0-9.418 4.83 7.486 7.486 0 0 0 4.83 9.418c48.165 15.511 89.623 45.32 119.891 86.205 30.867 41.693 47.183 91.234 47.183 143.271 0 27.998-4.756 55.427-14.134 81.524-.244.68-.491 1.357-.741 2.033a7.483 7.483 0 1 0 14.037 5.192c.265-.717.528-1.437.788-2.161C506.948 314.861 512 285.728 512 256c.001-55.266-17.331-107.888-50.12-152.177zM298.869 3.574A258.54 258.54 0 0 0 256.001 0a7.484 7.484 0 0 0 0 14.968c13.548 0 27.133 1.133 40.378 3.366a7.486 7.486 0 0 0 8.624-6.136 7.483 7.483 0 0 0-6.134-8.624zM123.397 457.311C55.503 412.495 14.969 337.239 14.969 256c0-34.562 7.158-67.923 21.273-99.158 13.641-30.182 33.034-56.833 57.643-79.212a7.485 7.485 0 0 0-10.07-11.074c-26.13 23.763-46.725 52.066-61.213 84.123C7.606 183.863.001 219.299.001 256c0 86.283 43.047 166.209 115.15 213.802a7.478 7.478 0 0 0 10.369-2.123 7.483 7.483 0 0 0-2.123-10.368z"/><path d="M332.592 458.29a7.488 7.488 0 0 0-9.494-4.681 206.612 206.612 0 0 1-13.821 4.16 7.485 7.485 0 0 0 3.811 14.475c4.97-1.309 9.958-2.81 14.822-4.461a7.484 7.484 0 0 0 4.682-9.493zm-43.36 11.416a7.48 7.48 0 0 0-8.315-6.546c-4.753.565-9.596.973-14.397 1.211a7.484 7.484 0 0 0 .741 14.949 225.691 225.691 0 0 0 15.424-1.298 7.483 7.483 0 0 0 6.547-8.316zm118.446-59.579a7.481 7.481 0 0 0-10.573-.448 211.078 211.078 0 0 1-10.97 9.402 7.484 7.484 0 0 0 9.343 11.693 226.211 226.211 0 0 0 11.753-10.073 7.484 7.484 0 0 0 .447-10.574zm-287.882 3.911a209.267 209.267 0 0 1-10.61-9.808 7.482 7.482 0 0 0-10.583.051 7.482 7.482 0 0 0 .051 10.583 224.37 224.37 0 0 0 11.366 10.507 7.452 7.452 0 0 0 4.885 1.817 7.484 7.484 0 0 0 4.891-13.15zm252.845 24.083a7.484 7.484 0 0 0-10.256-2.612 208.183 208.183 0 0 1-12.664 6.939 7.484 7.484 0 1 0 6.733 13.368 223.921 223.921 0 0 0 13.575-7.439 7.484 7.484 0 0 0 2.612-10.256zM53.133 304.912a207.976 207.976 0 0 1-2.882-14.148c-.684-4.076-4.548-6.832-8.619-6.143a7.484 7.484 0 0 0-6.143 8.619 223.593 223.593 0 0 0 3.089 15.169 7.487 7.487 0 0 0 7.27 5.738 7.486 7.486 0 0 0 7.285-9.235zm37.232-187.939a7.482 7.482 0 0 0-10.506 1.278 224.863 224.863 0 0 0-9.119 12.511 7.483 7.483 0 0 0 6.19 11.682 7.48 7.48 0 0 0 6.204-3.288 210.187 210.187 0 0 1 8.511-11.677 7.485 7.485 0 0 0-1.28-10.506zm64.947 321.798a209.861 209.861 0 0 1-12.402-7.42 7.485 7.485 0 0 0-8.125 12.57 225.347 225.347 0 0 0 13.292 7.953 7.481 7.481 0 0 0 10.169-2.934 7.485 7.485 0 0 0-2.934-10.169zm-65.192-56.22a209.43 209.43 0 0 1-8.365-11.768 7.483 7.483 0 0 0-10.369-2.123 7.483 7.483 0 0 0-2.122 10.369 223.987 223.987 0 0 0 8.963 12.61 7.472 7.472 0 0 0 5.952 2.941 7.486 7.486 0 0 0 5.941-12.029zm147.522 81.284a210.538 210.538 0 0 1-14.335-1.749c-4.082-.647-7.914 2.146-8.556 6.23a7.483 7.483 0 0 0 6.23 8.556c5.072.798 10.24 1.429 15.362 1.875a7.484 7.484 0 0 0 1.299-14.912zm-42.464-8.207a208.605 208.605 0 0 1-13.679-4.69 7.483 7.483 0 1 0-5.345 13.981 223.14 223.14 0 0 0 14.667 5.029c.726.221 1.46.326 2.181.326a7.489 7.489 0 0 0 7.157-5.307 7.483 7.483 0 0 0-4.981-9.339zM48.29 195.646a7.482 7.482 0 0 0-9.089 5.423 223.162 223.162 0 0 0-3.268 15.143 7.484 7.484 0 0 0 14.732 2.647 209.052 209.052 0 0 1 3.048-14.126 7.481 7.481 0 0 0-5.423-9.087zm-.754 51.929a7.483 7.483 0 0 0-7.181-7.775c-4.13-.16-7.611 3.049-7.775 7.18a227.665 227.665 0 0 0-.088 15.474 7.485 7.485 0 0 0 14.962-.425 212.927 212.927 0 0 1 .082-14.454zm20.027 98.087a208.376 208.376 0 0 1-5.75-13.227 7.484 7.484 0 0 0-13.926 5.486 223.063 223.063 0 0 0 6.165 14.181 7.485 7.485 0 0 0 6.76 4.266 7.484 7.484 0 0 0 6.751-10.706zM65.217 154.11a7.482 7.482 0 0 0-10.018 3.417 222.636 222.636 0 0 0-6.342 14.132 7.484 7.484 0 1 0 13.861 5.649 208.976 208.976 0 0 1 5.915-13.181 7.482 7.482 0 0 0-3.416-10.017zm390.883 1.997a225.298 225.298 0 0 0-7.394-13.585 7.484 7.484 0 1 0-12.891 7.607 208.751 208.751 0 0 1 6.898 12.674 7.485 7.485 0 1 0 13.387-6.696zM317.138 40.863a222.76 222.76 0 0 0-15.031-3.702 7.485 7.485 0 0 0-3.072 14.649c4.694.984 9.41 2.146 14.019 3.454a7.471 7.471 0 0 0 2.046.286 7.49 7.49 0 0 0 7.197-5.444 7.487 7.487 0 0 0-5.159-9.243zm-45.677-7.936a227.967 227.967 0 0 0-15.46-.527 7.484 7.484 0 0 0 0 14.968c4.808 0 9.666.166 14.439.492a7.484 7.484 0 0 0 1.021-14.933zm88.754 25.194a223.117 223.117 0 0 0-13.947-6.75 7.484 7.484 0 0 0-6.048 13.692 208.989 208.989 0 0 1 13.009 6.298 7.487 7.487 0 0 0 6.986-13.24zm70.969 58.914a225.566 225.566 0 0 0-10.035-11.779 7.484 7.484 0 0 0-11.052 10.094 210.353 210.353 0 0 1 9.367 10.993 7.466 7.466 0 0 0 5.865 2.83 7.446 7.446 0 0 0 4.649-1.625 7.48 7.48 0 0 0 1.206-10.513zm46.912 112.897c-.476-4.106-4.188-7.052-8.297-6.57a7.482 7.482 0 0 0-6.57 8.296c.553 4.758.946 9.6 1.17 14.395a7.484 7.484 0 0 0 14.951-.699 226.135 226.135 0 0 0-1.254-15.422zm-79.33-146.03a226.899 226.899 0 0 0-12.244-9.475 7.485 7.485 0 0 0-8.748 12.146 211.395 211.395 0 0 1 11.429 8.845 7.457 7.457 0 0 0 4.778 1.726 7.485 7.485 0 0 0 4.785-13.242zm73.638 115.616a222.834 222.834 0 0 0-4.421-14.836 7.485 7.485 0 0 0-14.188 4.771 207.576 207.576 0 0 1 4.122 13.837 7.485 7.485 0 1 0 14.487-3.772zm-36.179 22.161l-39.109-5.551a145.612 145.612 0 0 0-13.137-31.714l23.729-31.579a7.485 7.485 0 0 0-.691-9.788l-38.059-38.059a7.485 7.485 0 0 0-9.788-.691l-31.58 23.729a145.595 145.595 0 0 0-31.714-13.138l-5.551-39.109a7.484 7.484 0 0 0-7.41-6.432H229.09a7.484 7.484 0 0 0-7.41 6.432l-5.551 39.109a145.586 145.586 0 0 0-31.714 13.138l-31.58-23.729a7.485 7.485 0 0 0-9.788.691l-38.059 38.059a7.485 7.485 0 0 0-.692 9.788l23.73 31.579a145.693 145.693 0 0 0-13.138 31.714l-39.109 5.551a7.484 7.484 0 0 0-6.432 7.41v53.824a7.484 7.484 0 0 0 6.432 7.41l39.109 5.551a145.623 145.623 0 0 0 13.138 31.714l-23.729 31.58a7.485 7.485 0 0 0 .691 9.788l38.059 38.059a7.486 7.486 0 0 0 9.788.692l31.58-23.729a145.693 145.693 0 0 0 31.714 13.138l5.551 39.109a7.484 7.484 0 0 0 7.41 6.432h53.824a7.484 7.484 0 0 0 7.41-6.432l5.551-39.109a145.644 145.644 0 0 0 31.714-13.138l31.58 23.729a7.484 7.484 0 0 0 9.788-.692l38.059-38.059a7.483 7.483 0 0 0 .691-9.788l-23.729-31.58a145.693 145.693 0 0 0 13.138-31.714l39.108-5.551a7.484 7.484 0 0 0 6.432-7.41v-53.824a7.48 7.48 0 0 0-6.431-7.41zm-8.539 54.734l-37.596 5.338a7.483 7.483 0 0 0-6.218 5.631 130.717 130.717 0 0 1-15.261 36.841 7.484 7.484 0 0 0 .414 8.38l22.812 30.36-28.872 28.872-30.36-22.812a7.484 7.484 0 0 0-8.38-.414 130.746 130.746 0 0 1-36.841 15.261 7.48 7.48 0 0 0-5.631 6.218l-5.338 37.597h-40.829l-5.337-37.597a7.484 7.484 0 0 0-5.632-6.218 130.717 130.717 0 0 1-36.841-15.261 7.482 7.482 0 0 0-8.38.414l-30.36 22.812-28.872-28.872 22.812-30.36a7.484 7.484 0 0 0 .414-8.38 130.746 130.746 0 0 1-15.261-36.841 7.48 7.48 0 0 0-6.218-5.631l-37.596-5.338v-40.828l37.596-5.338a7.484 7.484 0 0 0 6.218-5.631 130.77 130.77 0 0 1 15.261-36.841 7.484 7.484 0 0 0-.414-8.38l-22.812-30.359 28.872-28.873 30.36 22.812a7.488 7.488 0 0 0 8.38.414 130.73 130.73 0 0 1 36.84-15.261 7.484 7.484 0 0 0 5.633-6.218l5.337-37.597h40.829l5.338 37.596a7.483 7.483 0 0 0 5.631 6.218 130.782 130.782 0 0 1 36.841 15.261 7.482 7.482 0 0 0 8.38-.414l30.36-22.812 28.872 28.872-22.812 30.359a7.484 7.484 0 0 0-.414 8.38 130.77 130.77 0 0 1 15.261 36.841 7.48 7.48 0 0 0 6.218 5.631l37.596 5.338v40.83z"/><path d="M263.508 232.015l.163-42.603a7.484 7.484 0 0 0-7.455-7.513h-.029a7.486 7.486 0 0 0-7.484 7.455l-.164 42.644c-10.226 3.185-17.672 12.741-17.672 24.002 0 5.214 1.597 10.06 4.325 14.08l-19.743 21.495a7.484 7.484 0 0 0 11.022 10.126l20.457-22.269a24.994 24.994 0 0 0 9.072 1.701c13.858 0 25.132-11.274 25.132-25.132 0-11.243-7.422-20.784-17.624-23.986zm-7.507 34.149c-5.604 0-10.164-4.559-10.164-10.164 0-5.604 4.56-10.164 10.164-10.164 5.605 0 10.164 4.559 10.164 10.164s-4.559 10.164-10.164 10.164z"/></symbol><symbol viewBox="0 0 129 129" id="gallery" xmlns="http://www.w3.org/2000/svg"><path d="M10.5 58.9h44.3c2.3 0 4.1-1.8 4.1-4.1V10.5c0-2.3-1.8-4.1-4.1-4.1H10.5c-2.3 0-4.1 1.8-4.1 4.1v44.3c0 2.2 1.9 4.1 4.1 4.1zm4.1-44.3h36.1v36.1H14.6V14.6zm108-4.1c0-2.3-1.8-4.1-4.1-4.1H74.2c-2.3 0-4.1 1.8-4.1 4.1v44.3c0 2.3 1.8 4.1 4.1 4.1h44.3c2.3 0 4.1-1.8 4.1-4.1V10.5zm-8.2 40.2H78.3V14.6h36.1v36.1zM10.5 122.6h44.3c2.3 0 4.1-1.8 4.1-4.1V74.2c0-2.3-1.8-4.1-4.1-4.1H10.5c-2.3 0-4.1 1.8-4.1 4.1v44.3c0 2.2 1.9 4.1 4.1 4.1zm4.1-44.3h36.1v36.1H14.6V78.3zm103.9-8.2H74.2c-2.3 0-4.1 1.8-4.1 4.1v44.3c0 2.3 1.8 4.1 4.1 4.1h44.3c2.3 0 4.1-1.8 4.1-4.1V74.2c0-2.2-1.9-4.1-4.1-4.1zm-4.1 44.3H78.3V78.3h36.1v36.1z"/></symbol><symbol viewBox="0 0 24 24" id="hamburger" xmlns="http://www.w3.org/2000/svg"><path d="M0 0h24v4H0zm0 14h24v4H0zm0-7h24v4H0z"/></symbol><symbol viewBox="0 0 50 50" id="main" xmlns="http://www.w3.org/2000/svg"><path d="M48.5 44.833h-3V24.038l1.968 1.395a1.5 1.5 0 0 0 2.368-1.224v-4a1.5 1.5 0 0 0-.633-1.224L40 12.462V6.083a1.5 1.5 0 1 0-3 0v4.252L25.867 2.443a1.5 1.5 0 0 0-1.734 0L.799 18.985a1.499 1.499 0 0 0-.633 1.224v4a1.5 1.5 0 0 0 2.367 1.224L4.5 24.038v20.795h-3a1.5 1.5 0 1 0 0 3h47a1.5 1.5 0 1 0 0-3zm-16.935 0V27.82a1.5 1.5 0 0 0-1.5-1.5h-10.13a1.5 1.5 0 0 0-1.5 1.5v17.013H7.5V22.249c0-.108-.012-.212-.034-.313L25 9.506l17.534 12.429a1.474 1.474 0 0 0-.034.314v22.584H31.565z"/></symbol><symbol viewBox="0 0 512 512" id="mess" xmlns="http://www.w3.org/2000/svg"><path d="M467 61H45C20.218 61 0 81.196 0 106v300c0 24.72 20.128 45 45 45h422c24.72 0 45-20.128 45-45V106c0-24.72-20.128-45-45-45zm-6.214 30L256.954 294.833 51.359 91h409.427zM30 399.788V112.069l144.479 143.24L30 399.788zM51.213 421l144.57-144.57 50.657 50.222c5.864 5.814 15.327 5.795 21.167-.046L317 277.213 460.787 421H51.213zM482 399.787L338.213 256 482 112.212v287.575z"/></symbol><symbol viewBox="0 0 578.106 578.106" id="phone" xmlns="http://www.w3.org/2000/svg"><path d="M577.83 456.128c1.225 9.385-1.635 17.545-8.568 24.48l-81.396 80.781c-3.672 4.08-8.465 7.551-14.381 10.404-5.916 2.857-11.729 4.693-17.439 5.508-.408 0-1.635.105-3.676.309-2.037.203-4.689.307-7.953.307-7.754 0-20.301-1.326-37.641-3.979s-38.555-9.182-63.645-19.584c-25.096-10.404-53.553-26.012-85.376-46.818-31.823-20.805-65.688-49.367-101.592-85.68-28.56-28.152-52.224-55.08-70.992-80.783-18.768-25.705-33.864-49.471-45.288-71.299-11.425-21.828-19.993-41.616-25.705-59.364S4.59 177.362 2.55 164.51-.306 141.56.102 134.216c.408-7.344.612-11.424.612-12.24.816-5.712 2.652-11.526 5.508-17.442s6.324-10.71 10.404-14.382L98.022 8.756c5.712-5.712 12.24-8.568 19.584-8.568 5.304 0 9.996 1.53 14.076 4.59s7.548 6.834 10.404 11.322l65.484 124.236c3.672 6.528 4.692 13.668 3.06 21.42-1.632 7.752-5.1 14.28-10.404 19.584l-29.988 29.988c-.816.816-1.53 2.142-2.142 3.978s-.918 3.366-.918 4.59c1.632 8.568 5.304 18.36 11.016 29.376 4.896 9.792 12.444 21.726 22.644 35.802s24.684 30.293 43.452 48.653c18.36 18.77 34.68 33.354 48.96 43.76 14.277 10.4 26.215 18.053 35.803 22.949 9.588 4.896 16.932 7.854 22.031 8.871l7.648 1.531c.816 0 2.145-.307 3.979-.918 1.836-.613 3.162-1.326 3.979-2.143l34.883-35.496c7.348-6.527 15.912-9.791 25.705-9.791 6.938 0 12.443 1.223 16.523 3.672h.611l118.115 69.768c8.571 5.308 13.67 12.038 15.303 20.198z"/></symbol><symbol viewBox="0 0 56.414 56.414" id="price" xmlns="http://www.w3.org/2000/svg"><path d="M56.414 11.089L45.299 0H31.295l-5.519 5.501C12.053 4.356.988 12.076.833 12.187a1 1 0 1 0 1.162 1.626c.139-.099 9.712-6.776 21.881-6.419L5.999 25.213l.008.008L0 31.213l25.146 25.201 10.04-10.013c2.062 1.08 4.461 1.611 6.834 1.61 3.501 0 6.935-1.138 9.101-3.304 7.367-7.368 4.443-15.45 3.443-17.633l1.849-1.845v-14.14zM44.473 2l9.941 9.919v12.48L34.876 43.873c-4.084-2.928-5.327-8.422-3.493-15.626a1 1 0 0 0-.722-1.216.994.994 0 0 0-1.216.722c-2.589 10.167.89 15.181 3.999 17.547l-2.293 2.286L8.836 25.224 26.516 7.59c4.198.48 8.631 1.866 13.046 4.667a3.886 3.886 0 0 0-.068.678c0 2.17 1.765 3.935 3.935 3.935s3.936-1.765 3.936-3.935S45.599 9 43.429 9c-1.216 0-2.291.566-3.013 1.436-4.089-2.557-8.187-3.982-12.118-4.622L32.121 2h12.352zm-2.659 11.8a.997.997 0 0 0 1.399-.2.998.998 0 0 0-.2-1.399c-.309-.231-.619-.435-.928-.652A1.923 1.923 0 0 1 43.429 11c1.067 0 1.936.868 1.936 1.936a1.938 1.938 0 0 1-1.936 1.935 1.938 1.938 0 0 1-1.785-1.19c.057.041.114.076.17.119zM2.828 31.217l4.592-4.58 22.322 22.37-4.592 4.58-22.322-22.37zm46.879 12.076c-2.576 2.574-8.37 3.748-13.03 1.621l16.375-16.332c.995 2.476 2.605 8.76-3.345 14.711z"/></symbol><symbol viewBox="0 0 496 496" id="prophesy" xmlns="http://www.w3.org/2000/svg"><path d="M324 96h16v16h-16z"/><path d="M443.16 164.424l-.896.448a30.526 30.526 0 0 0-19.6-19.272C431.024 133.832 436 119.496 436 104V72c0-39.696-32.304-72-72-72-28.2 0-52.592 16.336-64.4 40H264c-11.024 0-20 8.976-20 20s8.976 20 20 20h28v24c0 39.696 32.304 72 72 72 1.664 0 3.296-.136 4.936-.248l-25.344 25.344-70.848 25.76c-10.56 3.84-18.12 13.056-20.152 23.856C230.008 234.008 202.184 224 172 224c-74.992 0-136 61.008-136 136s61.008 136 136 136 136-61.008 136-136c0-26.456-7.712-51.088-20.832-72h.304c4.032 0 7.968-.76 11.712-2.256L340 269.416v173.64l-19.384 9.688C312.832 456.64 308 464.472 308 473.168 308 485.76 318.24 496 330.832 496H460V235.776c0-24.64-5.824-49.32-16.84-71.352zM292.472 64H264c-2.208 0-4-1.792-4-4s1.792-4 4-4h29.856c-.6 2.624-1.08 5.28-1.384 8zm-.912 287.432L282.4 339.2l-12.8 9.6 21.064 28.088c-3.304 23.344-13.296 44.52-28.048 61.544l2.152-15.072-15.832-2.264-4.96 34.696c-17.928 13.504-39.696 22.088-63.4 23.776L192.8 470.4l-9.6-12.8-28.088 21.064a119.364 119.364 0 0 1-61.536-28.056l15.072 2.152 2.264-15.832-34.696-4.96c-13.504-17.928-22.088-39.696-23.776-63.4L61.6 380.8l12.8-9.6-21.064-28.088a119.364 119.364 0 0 1 28.056-61.536l-2.152 15.072 15.832 2.264 4.96-34.696c17.928-13.504 39.696-22.088 63.4-23.776L151.2 249.6l9.6 12.8 28.088-21.064a119.364 119.364 0 0 1 61.536 28.056l-15.072-2.152-2.264 15.832 34.696 4.96c13.504 17.928 22.088 39.696 23.776 63.4zm1.664-80.536a15.517 15.517 0 0 1-5.752 1.104h-3.952c-8.56 0-15.52-6.968-15.52-15.52 0-6.504 4.104-12.368 10.216-14.584l7.96-2.896 11.968 29.928-4.92 1.968zM372 96.4V80h48v24c0 17.816-8.392 33.688-21.408 43.952a30.179 30.179 0 0 0-5.12 3.576A55.525 55.525 0 0 1 372 159.36V135.6c9.12-1.856 16-9.936 16-19.6s-6.88-17.736-16-19.6zM364 16c28.152 0 51.456 20.904 55.36 48H308.64c3.904-27.096 27.208-48 55.36-48zm4 104h-12v39.36c-27.096-3.904-48-27.208-48-55.36V80h48v32h12c2.208 0 4 1.792 4 4s-1.792 4-4 4zm-54.992 142.984l-11.784-29.456 51.176-18.616 50.288-50.288c1.632-1.04 3.2-2.16 4.736-3.328 1.856-.832 3.864-1.296 5.944-1.296 8.072 0 14.632 6.56 14.632 14.632a14.53 14.53 0 0 1-4.288 10.344l-56.208 56.208-54.496 21.8zM348 473.168c0 2.392.472 4.664 1.16 6.832h-18.328a6.839 6.839 0 0 1-6.832-6.832 6.79 6.79 0 0 1 3.776-6.112L349.888 456h5.992c-4.92 4.272-7.88 10.432-7.88 17.168zM444 480h-73.168a6.839 6.839 0 0 1-6.832-6.832 6.79 6.79 0 0 1 3.776-6.112L389.888 456H444v24zm0-40h-48V320h-16v120h-24V263.016l20.496-8.2 58.528-58.528c.936-.936 1.688-1.992 2.48-3.016 4.256 13.744 6.496 28.12 6.496 42.504V440z"/><path d="M172 272c-48.52 0-88 39.48-88 88s39.48 88 88 88 88-39.48 88-88-39.48-88-88-88zm0 160c-39.696 0-72-32.304-72-72s32.304-72 72-72 72 32.304 72 72-32.304 72-72 72z"/><path d="M172 296c-35.288 0-64 28.712-64 64s28.712 64 64 64 64-28.712 64-64-28.712-64-64-64zm8 16.72a48.05 48.05 0 0 1 28.968 16.696l-21.48 12.4a23.828 23.828 0 0 0-7.488-4.344V312.72zm-16 0v24.752a23.982 23.982 0 0 0-7.488 4.344l-21.48-12.4A48.05 48.05 0 0 1 164 312.72zM124 360c0-5.88 1.112-11.496 3.056-16.712l21.384 12.344c-.264 1.424-.44 2.872-.44 4.368 0 1.496.176 2.944.44 4.36l-21.384 12.344C125.112 371.496 124 365.88 124 360zm40 47.28a48.05 48.05 0 0 1-28.968-16.696l21.48-12.4a23.828 23.828 0 0 0 7.488 4.344v24.752zm8-39.28c-4.408 0-8-3.592-8-8 0-4.408 3.592-8 8-8s8 3.592 8 8c0 4.408-3.592 8-8 8zm8 39.28v-24.752a23.982 23.982 0 0 0 7.488-4.344l21.48 12.4A48.05 48.05 0 0 1 180 407.28zm36.944-30.568l-21.384-12.344c.264-1.424.44-2.872.44-4.368 0-1.496-.176-2.944-.44-4.36l21.384-12.344C218.888 348.504 220 354.12 220 360s-1.112 11.496-3.056 16.712z"/></symbol><symbol viewBox="0 0 512 512" id="reiting" xmlns="http://www.w3.org/2000/svg"><path d="M490.14 178.611l-42.868-8.572a160.23 160.23 0 0 0-10.867-26.228l24.252-36.378c7.165-10.748 5.737-25.176-3.398-34.312l-18.38-18.38c-9.134-9.135-23.563-10.566-34.312-3.398l-36.378 24.252a160.34 160.34 0 0 0-26.228-10.867l-8.574-42.868C330.854 9.193 319.641 0 306.724 0h-25.995c-12.916 0-24.131 9.193-26.664 21.86l-8.574 42.868a160.266 160.266 0 0 0-26.228 10.867l-36.378-24.252c-10.748-7.165-25.179-5.738-34.312 3.396l-18.381 18.382c-9.133 9.134-10.561 23.563-3.396 34.31l24.252 36.378a160.303 160.303 0 0 0-10.867 26.228l-42.868 8.573c-12.666 2.534-21.86 13.747-21.86 26.665v25.993c0 12.917 9.193 24.132 21.86 26.665l27.755 5.55a8.084 8.084 0 0 0 3.17-15.854l-27.755-5.55c-5.134-1.025-8.861-5.573-8.861-10.809v-25.993c0-5.236 3.727-9.784 8.861-10.81l47.645-9.529a8.085 8.085 0 0 0 6.2-5.75 143.994 143.994 0 0 1 13.193-31.84 8.086 8.086 0 0 0-.317-8.452l-26.955-40.433c-2.905-4.357-2.325-10.208 1.378-13.909l18.381-18.382c3.703-3.703 9.552-4.281 13.909-1.376L214.35 91.75a8.086 8.086 0 0 0 8.452.318 143.983 143.983 0 0 1 31.84-13.192 8.085 8.085 0 0 0 5.75-6.2l9.529-47.645c1.027-5.135 5.573-8.862 10.809-8.862h25.995c5.236 0 9.783 3.727 10.809 8.862l9.529 47.645a8.084 8.084 0 0 0 5.75 6.2 144.002 144.002 0 0 1 31.84 13.192 8.086 8.086 0 0 0 8.452-.318l40.434-26.955c4.357-2.905 10.207-2.327 13.909 1.378l18.38 18.38c3.704 3.704 4.282 9.553 1.378 13.91l-26.955 40.433a8.081 8.081 0 0 0-.317 8.452 144.042 144.042 0 0 1 13.193 31.84 8.087 8.087 0 0 0 6.2 5.75l47.645 9.529c5.135 1.026 8.861 5.574 8.861 10.81v25.993c0 5.236-3.727 9.784-8.861 10.81l-47.645 9.529a8.086 8.086 0 0 0-6.2 5.749 144.025 144.025 0 0 1-13.193 31.84 8.086 8.086 0 0 0 .317 8.452l26.955 40.433c2.905 4.357 2.325 10.208-1.378 13.909l-18.381 18.382c-3.703 3.703-9.551 4.281-13.909 1.376l-40.433-26.954a8.082 8.082 0 0 0-11.21 2.242 8.084 8.084 0 0 0 2.242 11.21l40.433 26.955a27.09 27.09 0 0 0 15.057 4.548c7.03 0 14.015-2.704 19.254-7.944l18.381-18.382c9.133-9.134 10.561-23.563 3.396-34.31l-24.252-36.378a160.376 160.376 0 0 0 10.867-26.228l42.868-8.572c12.666-2.534 21.86-13.748 21.86-26.665v-25.993c-.001-12.92-9.194-24.133-21.861-26.668z"/><path d="M320.674 280.253h-75.453a8.083 8.083 0 0 0-8.084 8.084 8.084 8.084 0 0 0 8.084 8.084h75.453c7.43 0 13.474 6.044 13.474 13.474v10.779c0 7.43-6.044 13.474-13.474 13.474h-75.453a8.084 8.084 0 0 0-8.084 8.084 8.084 8.084 0 0 0 8.084 8.084h75.453c7.43 0 13.474 6.044 13.474 13.474v10.779c0 7.43-6.044 13.474-13.474 13.474h-75.453a8.083 8.083 0 0 0-8.084 8.084 8.084 8.084 0 0 0 8.084 8.084h75.453c7.43 0 13.474 6.044 13.474 13.474v10.779c0 7.43-6.044 13.474-13.474 13.474h-75.453a8.083 8.083 0 0 0-8.084 8.084 8.084 8.084 0 0 0 8.084 8.084h75.453c7.43 0 13.474 6.044 13.474 13.474v10.779c0 7.43-6.044 13.474-13.474 13.474h-146.44c-7.644 0-14.838-2.97-20.256-8.36-8.553-8.51-19.843-13.198-31.79-13.198H102.4v-88.926c0-4.466-3.62-8.084-8.084-8.084s-8.084 3.618-8.084 8.084v107.789a2.698 2.698 0 0 1-2.695 2.695H59.284V385.347c0-4.466-3.62-8.084-8.084-8.084s-8.084 3.618-8.084 8.084v110.484H18.863a2.698 2.698 0 0 1-2.695-2.695V309.895a2.698 2.698 0 0 1 2.695-2.695h64.674a2.698 2.698 0 0 1 2.695 2.695v43.116c0 4.466 3.62 8.084 8.084 8.084s8.084-3.618 8.084-8.084v-24.253h19.492a29.607 29.607 0 0 0 28.121-20.268l3.009-9.032a273.213 273.213 0 0 0 14.051-86.574c0-7.43 6.044-13.474 13.474-13.474 6.479 0 12.569 2.523 17.15 7.104s7.103 10.671 7.103 17.15v86.229a8.084 8.084 0 0 0 16.168 0v-86.229c0-10.797-4.204-20.949-11.839-28.584-7.635-7.635-17.786-11.84-28.584-11.84-16.345 0-29.642 13.298-29.642 29.642 0 27.74-4.448 55.147-13.221 81.461l-3.011 9.032a13.457 13.457 0 0 1-12.782 9.213H102.4v-2.695c0-10.401-8.463-18.863-18.863-18.863H18.863C8.463 291.032 0 299.494 0 309.895v183.242C0 503.537 8.463 512 18.863 512h64.674c10.401 0 18.863-8.463 18.863-18.863v-2.695h19.787c7.644 0 14.884 3.016 20.386 8.491 8.469 8.426 19.713 13.067 31.66 13.067h146.441c16.345 0 29.642-13.298 29.642-29.642v-10.779c0-8.485-3.584-16.149-9.317-21.558 5.733-5.409 9.317-13.073 9.317-21.558v-10.779c0-8.485-3.584-16.149-9.317-21.558 5.733-5.409 9.317-13.073 9.317-21.558v-10.779c0-8.485-3.584-16.149-9.317-21.558 5.733-5.409 9.317-13.073 9.317-21.558v-10.779c0-16.343-13.297-29.641-29.642-29.641z"/><path d="M293.701 259.775c2.119 0 4.265-.163 6.423-.5 22.608-3.53 38.129-24.793 34.6-47.399-3.528-22.608-24.796-38.133-47.398-34.602-22.608 3.53-38.129 24.793-34.6 47.399 3.192 20.449 20.894 35.101 40.975 35.102zm-3.881-66.527c13.8-2.143 26.777 7.321 28.931 21.119 2.154 13.799-7.32 26.777-21.118 28.932-13.798 2.154-26.777-7.321-28.931-21.119-2.154-13.799 7.32-26.777 21.118-28.932zm77.009 103.173a8.06 8.06 0 0 0 5.841-2.494c23.782-24.85 34.382-58.57 29.084-92.514-2.692-17.244-9.208-33.113-19.371-47.163a8.086 8.086 0 0 0-13.102 9.476c8.652 11.964 14.203 25.483 16.497 40.18 4.514 28.925-4.521 57.662-24.79 78.843a8.084 8.084 0 0 0 5.841 13.672zm-5.685-154.123a8.082 8.082 0 0 0-1.589-11.321c-23.838-17.972-53.206-25.34-82.691-20.73-33.834 5.28-62.67 25.561-79.115 55.644a8.085 8.085 0 0 0 14.186 7.757c14.017-25.64 38.591-42.926 67.422-47.425 25.126-3.925 50.151 2.352 70.464 17.666 3.567 2.685 8.636 1.975 11.323-1.591z"/></symbol><symbol viewBox="0 0 97.16 97.16" id="times" xmlns="http://www.w3.org/2000/svg"><path d="M48.58 0C21.793 0 0 21.793 0 48.58s21.793 48.58 48.58 48.58 48.58-21.793 48.58-48.58S75.367 0 48.58 0zm0 86.823c-21.087 0-38.244-17.155-38.244-38.243S27.493 10.337 48.58 10.337 86.824 27.492 86.824 48.58 69.667 86.823 48.58 86.823z"/><path d="M73.898 47.08H52.066V20.83a4 4 0 0 0-8 0v30.25a4 4 0 0 0 4 4h25.832a4 4 0 0 0 0-8z"/></symbol><symbol viewBox="0 0 409.165 409.164" id="user" xmlns="http://www.w3.org/2000/svg"><path d="M204.583 216.671c50.664 0 91.74-48.075 91.74-107.378 0-82.237-41.074-107.377-91.74-107.377-50.668 0-91.74 25.14-91.74 107.377.001 59.303 41.073 107.378 91.74 107.378zm202.581 158.046L360.88 270.454a23.23 23.23 0 0 0-10.465-11.138l-71.83-37.392a4.628 4.628 0 0 0-4.926.415c-20.316 15.366-44.203 23.488-69.076 23.488-24.877 0-48.762-8.122-69.078-23.488a4.635 4.635 0 0 0-4.93-.415L58.75 259.316a23.222 23.222 0 0 0-10.465 11.138L2.001 374.717a23.059 23.059 0 0 0 1.75 22.005 23.056 23.056 0 0 0 19.4 10.526h362.861a23.063 23.063 0 0 0 19.402-10.527 23.063 23.063 0 0 0 1.75-22.004z"/></symbol><symbol viewBox="0 0 34.891 34.891" id="vacancy" xmlns="http://www.w3.org/2000/svg"><path d="M32.43 33.652c0-1.398-1.609-3.285-3.783-3.836.907-.611 1.533-1.816 1.533-2.902a2.773 2.773 0 1 0-5.545 0c0 1.086.627 2.291 1.533 2.902-2.173.551-3.783 2.438-3.783 3.836-.001 1.652 10.045 1.652 10.045 0zM9.028 6.278c1.239 0 2.247-1.442 2.247-2.682a2.248 2.248 0 1 0-4.497 0c0 1.24 1.008 2.682 2.25 2.682z"/><path d="M32.6 12.888V3.371c0-.875-.712-1.586-1.587-1.586h-6.146V.595a.595.595 0 0 0-1.192 0v1.19H17.53c-.874 0-1.586.711-1.586 1.586v4.873l-3.079-1.027c-.193-.068-1.919-.671-3.509-.75l-.213.425h-.004l.599 4.663-.711 1.244-.712-1.244.598-4.663h-.005l-.212-.425c-1.649.083-3.448.729-3.528.757-.033.013-.054.038-.084.052a.836.836 0 0 0-.369.34.735.735 0 0 0-.074.164c-.01.031-.031.054-.039.086L3.18 14.267a.89.89 0 0 0 .675 1.062c.065.012.128.018.194.018.408 0 .775-.28.865-.694l1.314-5.907c.092-.029.195-.06.31-.092v6.071l-.709 8.799c-.027.34.12.645.354.858a2.772 2.772 0 0 0-1.642 2.528c0 1.086.626 2.291 1.533 2.902-2.173.551-3.783 2.438-3.783 3.836 0 1.652 10.046 1.652 10.046 0 0-1.398-1.61-3.285-3.783-3.836.908-.611 1.534-1.816 1.534-2.902a2.77 2.77 0 0 0-2.314-2.729c.095-.145.168-.304.183-.488l.639-7.953c.133.057.278.091.433.091.152 0 .297-.034.429-.091l.64 7.953a1.068 1.068 0 0 0 2.128-.17l-.708-8.798v-6.07c.451.128.756.237.764.241l.012.003.01.003 3.643 1.215v2.771c0 .875.712 1.586 1.586 1.586h2.887l-2.533 9.454a.596.596 0 0 0-.005.262 2.854 2.854 0 0 0-.519-.052 2.774 2.774 0 0 0-2.774 2.774c0 1.086.627 2.291 1.535 2.902-2.174.551-3.784 2.438-3.784 3.836 0 1.652 10.046 1.652 10.046 0 0-1.398-1.61-3.285-3.782-3.836.907-.611 1.533-1.816 1.533-2.902 0-.998-.529-1.864-1.32-2.354a.583.583 0 0 0 .221-.322l2.615-9.763h2.027v6.919a.596.596 0 0 0 1.192 0v-6.919h2.025l2.615 9.763a.594.594 0 1 0 1.15-.31l-2.533-9.454h2.887a1.584 1.584 0 0 0 1.584-1.584zm-15.069.793a.794.794 0 0 1-.794-.793v-2.535c.038.005.076.019.114.019.372 0 .72-.236.844-.607a.89.89 0 0 0-.563-1.125l-.396-.132V3.371c0-.438.355-.793.794-.793h13.482c.438 0 .794.355.794.793v9.517a.793.793 0 0 1-.794.793H17.531z"/></symbol><symbol viewBox="0 0 512.053 512.053" id="where" xmlns="http://www.w3.org/2000/svg"><path d="M365.027 44.5c-30-29.667-66.333-44.5-109-44.5s-79 14.833-109 44.5-45 65.5-45 107.5c0 25.333 12.833 67.667 38.5 127 25.667 59.334 51.333 113.334 77 162s38.5 72.334 38.5 71c4-7.334 9.5-17.334 16.5-30s19.333-36.5 37-71.5 33.167-67.166 46.5-96.5c13.334-29.332 25.667-59.667 37-91s17-55 17-71c0-42-15-77.833-45-107.5zm-76 139.5c-9.333 9.333-20.5 14-33.5 14s-24.167-4.667-33.5-14-14-20.5-14-33.5 4.667-24 14-33 20.5-13.5 33.5-13.5 24.167 4.5 33.5 13.5 14 20 14 33-4.667 24.167-14 33.5z"/></symbol></svg>